# xmcd
#
# Track frame offsets:
#	150
#	9350
#	28032
#	37470
#	55363
#	67795
#	76043
#	86097
#	100554
#	109071
#	123367
#	141148
#	149272
#	155792
#	173095
#	189394
#	203874
#	219904
#	231020
#	248728
#	265421
#	277816
#	296553
#
# Disc length: 4153 seconds
#
# Revision: 0
# Processed by: cddbd v1.5.2PL0 Copyright (c) Steve Scherf et al.
# Submitted via: EasyCDDAExtractor 16.0.6.1
#
DISCID=41103717
DTITLE=Reese, Della - Jubilee Years-Singles - Disc 2
DYEAR=1900
DGENRE=Pop-50s
TTITLE0=Sometimes I'm Happy
TTITLE1=Happiness Is A Thing Called Joe
TTITLE2=Almost Like Being In Love
TTITLE3=Someone To Watch Over Me
TTITLE4=The Birth Of The Blues
TTITLE5=Pennies From Heaven
TTITLE6=Getting To Know You
TTITLE7=If I Forget You
TTITLE8=All Of Me
TTITLE9=The Nearness Of You
TTITLE10=Just One Of Those Things
TTITLE11=The Party's Over
TTITLE12=The Story Of The Blues
TTITLE13=Good Morning Blues
TTITLE14=Empty Bed Blues
TTITLE15=Squeeze Me
TTITLE16=You've Been A Good Old Wagon
TTITLE17=Sent For You Yesterday
TTITLE18=St. James Infirmary
TTITLE19=Lover Man
TTITLE20=Things Ain't What They Used To Be
TTITLE21=Stormy Weather
TTITLE22=There's Always The Blues
EXTD=
EXTT0=
EXTT1=
EXTT2=
EXTT3=
EXTT4=
EXTT5=
EXTT6=
EXTT7=
EXTT8=
EXTT9=
EXTT10=
EXTT11=
EXTT12=
EXTT13=
EXTT14=
EXTT15=
EXTT16=
EXTT17=
EXTT18=
EXTT19=
EXTT20=
EXTT21=
EXTT22=
PLAYORDER=
